PathFileType	4	(X/Y/Z)	RBDS021\RBDS021runT35.trc
DataRate	CameraRate	NumFrames	NumMarkers	Units	OrigDataRate	OrigDataStartFrame	OrigNumFrames
150.000000	150.000000	6	33	mm	150.000000	2250	4500
Frame#	Time	L.ASIS			L.Heel.Bottom			L.Heel.Lateral			L.Heel.Top			L.Iliac.Crest			L.MT1			L.MT5			L.PSIS			L.Shank.Bottom.Lateral			L.Shank.Bottom.Medial			L.Shank.Top.Lateral			L.Shank.Top.Medial			L.Thigh.Bottom.Lateral			L.Thigh.Bottom.Medial			L.Thigh.Top.Lateral			L.Thigh.Top.Medial			R.ASIS			R.ASY			R.Heel.Bottom			R.Heel.Lateral			R.Heel.Top			R.Iliac.Crest			R.MT1			R.MT5			R.PSIS			R.Shank.Bottom.Lateral			R.Shank.Bottom.Medial			R.Shank.Top.Lateral			R.Shank.Top.Medial			R.Thigh.Bottom.Lateral			R.Thigh.Bottom.Medial			R.Thigh.Top.Lateral			R.Thigh.Top.Medial			
		X1	Y1	Z1	X2	Y2	Z2	X3	Y3	Z3	X4	Y4	Z4	X5	Y5	Z5	X6	Y6	Z6	X7	Y7	Z7	X8	Y8	Z8	X9	Y9	Z9	X10	Y10	Z10	X11	Y11	Z11	X12	Y12	Z12	X13	Y13	Z13	X14	Y14	Z14	X15	Y15	Z15	X16	Y16	Z16	X17	Y17	Z17	X18	Y18	Z18	X19	Y19	Z19	X20	Y20	Z20	X21	Y21	Z21	X22	Y22	Z22	X23	Y23	Z23	X24	Y24	Z24	X25	Y25	Z25	X26	Y26	Z26	X27	Y27	Z27	X28	Y28	Z28	X29	Y29	Z29	X30	Y30	Z30	X31	Y31	Z31	X32	Y32	Z32	X33	Y33	Z33	

2251	15	2023.954180005458	938.0610883506655	886.6064557654165	1639.705410463963	64.34530902257646	1008.151131932338	1658.755872631204	74.41004941889126	954.7731952572622	1656.65288517701	107.9379081718939	998.4959274417155	1960.091468545795	1018.174248139921	837.9117919548737	1853.865605013662	41.27151249829497	994.0815138699933	1793.778304167178	35.09672386114708	894.2816815585379	1848.400786537615	989.793463523408	962.2050380166787	1759.709052119995	177.2427201225531	909.7005264711718	1729.205469533686	206.2529517372904	946.4298431441543	1792.888523943914	245.7629273321641	884.2746393229824	1763.999914133217	274.7376497017107	919.8605870838161	1942.27600743204	584.4746932852067	825.1222773868312	1877.550228150958	587.9112638558802	855.4689355069108	1934.754035942501	692.3981794701896	803.3942142338736	1873.232423139922	696.1459305928779	833.7652608989428	2026.708157483118	925.1626720746074	1107.786536925392	1851.430756453735	257.7142728345536	1067.578750803608	1743.087700871427	402.0709676919154	1022.030540203214	1763.024761850074	388.989554686191	1072.338283581727	1787.026354469626	410.7729086330769	1028.680334223146	1960.663532611487	993.939188783626	1156.19913660499	1834.011457302191	208.6170993559049	1018.808101993897	1802.917262212703	240.0823139978645	1123.018186274867	1848.357316137347	981.6757895525496	1041.576929689898	1889.043296599152	412.5895715272489	1097.968661070194	1884.448300974846	437.7074341431509	1053.510960461909	1962.765028000646	452.3093428669008	1111.642210239049	1952.454240431117	479.343379732695	1066.895390006818	2118.546236955528	629.4112545849999	1153.134324846652	2068.765654597343	589.1604656510582	1117.194765597593	2042.293244461357	707.0262903722006	1166.280950363179	1994.900703029717	667.8192390019537	1132.555590667394	
2252	15.00666666666667	2025.084621325076	939.9307436481937	887.698850139927	1617.561959269791	70.34795121709048	1007.371446097843	1636.978267438843	79.20592354894393	953.9556238666639	1635.668282974661	113.3625888755062	997.2519876610626	1963.028724609584	1021.138929987717	838.4220037015652	1830.096278264629	41.30180232977492	994.1530075301188	1770.337735517371	35.49949827560397	894.3712901093475	1849.175990371329	992.7747991571824	960.5894654922319	1738.982953043086	181.5655818229638	909.0157145833655	1709.123340619677	210.7038124698028	946.1035372611509	1773.013486239513	249.8134309724356	883.868698229253	1744.610124029569	278.9126855959295	919.7291701785023	1930.972130596497	586.0423022489697	825.8512364868448	1866.477768258902	591.898013770352	856.3354629284652	1927.427920306055	694.1879018332921	804.0897022913083	1866.154590471836	700.2116261878548	834.6366422291929	2025.877773368871	930.9381385978487	1109.017708893555	1878.059527550935	246.7647884344924	1067.6453353569	1759.308083844729	382.5719613240208	1022.448613938598	1780.279507657608	370.8707223370285	1072.6948677594	1802.488818383746	394.5581197393744	1029.042077679596	1957.926424845361	999.1689164306684	1157.223701469598	1864.285766316548	196.6016001912712	1018.824906560875	1830.999543196481	225.3194333881564	1123.018297755252	1848.161114913309	985.8133176883582	1040.285815334944	1904.625060320493	403.2937523040156	1097.972666416298	1897.813934582276	428.5527130910292	1053.831461324819	1975.225273075356	448.1911947373877	1111.644948838521	1962.584709413898	474.8885941051213	1067.266847298823	2124.485713978281	639.9619185089535	1151.991394480768	2075.800114769456	598.308155957267	1116.208952202398	2045.90354324595	715.1290965086201	1166.216904807435	1999.571030575215	674.4974042101649	1132.836132094988	
2253	15.01333333333333	2026.470617499422	942.2125779484187	888.6873268314868	1596.121871305145	77.24955350503645	1006.2857234344	1615.951467098881	84.73841500110755	952.869722629501	1615.546447035683	119.5203645842417	995.6802856142159	1966.64762289497	1024.104888253697	839.0352020261278	1806.621549976589	41.3406370460076	994.180937189277	1747.194650718343	35.94323604414847	894.3436179714147	1850.359367349232	996.090895968838	959.0954074492028	1718.824656017229	186.5083963446747	908.0840095450249	1689.61889849174	215.5964112180106	945.6282046382619	1753.513598439383	254.6122642559191	883.3140402759592	1725.573416082376	283.6627314698654	919.5435478916377	1919.631726947664	588.4095939994988	826.7379147649216	1855.616791096899	596.7759397357669	857.6064152692149	1920.178890463145	696.5978218133891	804.8988458587688	1859.356797502793	704.9789377440336	835.8063292627063	2025.606379697135	937.0386715787683	1109.898926405695	1905.50460953691	236.0335762723054	1067.889634425975	1776.89387211658	362.172852479376	1021.963725348502	1798.633097955251	352.0946805088053	1072.257906491856	1819.009602413185	377.4500874981953	1028.608978632357	1956.300756665061	1004.74102181637	1158.175635681523	1895.678704649048	184.8966661440206	1019.203333357403	1859.979945558143	210.9653915424755	1123.049680976193	1848.412253754157	990.3287910312334	1039.164521108142	1920.50013976978	393.486943791262	1097.604569462227	1911.570811612704	418.6213714648167	1053.71329851363	1987.44594790623	443.5425295574516	1111.41983980097	1972.593496264822	469.5949698920742	1067.334332443305	2129.685730409193	650.5171583090703	1150.956825866901	2081.892140823738	607.633604374586	1115.500728230443	2049.197708681456	723.5324162064973	1166.254525736913	2003.751730429266	681.6693386704706	1133.318755290447	
2254	15.02	2028.080113167892	944.8378963743857	889.5369657144579	1575.565632671287	85.12560993963075	1004.832171230638	1595.833852736653	91.06847772349323	951.4497179163748	1596.472566765472	126.4547263749329	993.7163402829108	1970.901581569349	1027.030855944025	839.7390096204366	1783.532693599058	41.38731418955189	994.1180391981608	1724.431327055394	36.45272771696868	894.1506061832293	1851.924997812229	999.7335710916818	957.7411869361224	1699.399263871685	192.0431760221975	906.8433970434332	1670.843035970846	220.8928036328399	944.9418202577136	1734.549408578933	260.1387762556859	882.5698328037403	1707.040337681818	288.9636912078217	919.259205874288	1908.371115613894	591.6195176071983	827.7590408217471	1845.076391143912	602.5597865245364	859.2265738576619	1913.106654953659	699.6570974354187	805.7941150317946	1852.934114131781	710.4523183033698	837.2201836330654	2025.857589084314	943.2916413632081	1110.439571168623	1933.705189955737	225.6505061160374	1068.325699798658	1795.993808447782	341.1699222894478	1020.667246484871	1818.17961434753	332.87966386453	1071.116963489325	1836.732466088375	359.6913655996031	1027.48374966534	1955.678507601428	1010.578606310193	1159.055217447647	1928.109611123944	173.7208318251151	1019.933969722479	1889.762610666344	197.1496795255402	1123.138936370525	1849.102773147408	995.1668221888769	1038.216277850331	1936.755837832686	383.2682731848323	1096.908381491799	1925.867624906036	407.9957369977266	1053.174125096786	1999.547163990963	438.3549798593138	1110.96712065312	1982.661830767419	463.4486438917279	1067.071565641832	2134.185563234908	660.8526343215266	1150.03384759766	2087.049082112858	616.8931909363129	1115.112299209201	2052.210180255044	732.0629627422356	1166.349420496846	2007.435751169922	689.1514212362673	1133.990833488958	
2255	15.02666666666667	2029.87373163445	947.7194873499039	890.2280326909954	1556.061456560517	94.02717628250576	1002.968013193346	1576.768042695316	98.25025936025899	949.6497875985501	1578.61124688864	134.1920175086896	991.3264121172301	1975.721391149764	1029.893130255391	840.5159305589976	1760.911549396482	41.46279466211329	993.9265281285162	1702.1316221212	37.08975339048545	893.7585420001965	1853.830379653233	1003.67793103032	956.5268947568816	1680.865604071638	198.1194492233216	905.2626325623891	1652.932192576654	226.5458538791315	944.0011748804327	1716.283503107957	266.34267267554	881.6159285282225	1689.157107236595	294.7733069621357	918.8394183535577	1897.312629601694	595.675505624737	828.8915532666435	1834.960821639216	609.2247484505473	861.127881105725	1906.309328548974	703.3601395561105	806.7457724888401	1846.972239675172	716.6016386165539	838.8126250876803	2026.56843027629	949.5433227256786	1110.67295856223	1962.565470254993	215.7330947853337	1068.951568481088	1816.691611866409	319.8614448951317	1018.690641789906	1838.967137156328	313.4459514283998	1069.397615054086	1855.746440595879	341.5300748316233	1025.802386370025	1955.89750728381	1016.604149367725	1159.845079719764	1961.444576283083	163.277991948578	1020.986073027994	1920.230180652649	183.9852479146257	1123.302609507972	1850.206139354512	1000.255765991046	1037.423126307338	1953.450949623844	372.7412567860756	1095.951183241117	1940.8148249661	396.7826149268366	1052.263741770792	2011.639429638769	432.6306770750742	1110.311751876066	1992.953065796808	456.4700962133627	1066.484853848225	2138.011714843739	670.7432062949664	1149.216841279141	2091.279408349344	625.8471708709496	1115.058855746649	2054.956052634679	740.5355320529424	1166.448752089206	2010.613126834481	696.750973252502	1134.814941826292	
2256	15.03333333333333	2031.80541134026	950.7619816839569	890.7560710031776	1537.748213023026	103.9772401105028	1000.674287473802	1558.86715609917	106.3264382711991	947.4491057437499	1562.088248056943	142.7408572055071	988.5114025575837	1981.012184429908	1032.685649689586	841.3470195054365	1738.822315834154	41.61732388750385	993.581334335849	1680.375596946682	37.95472796149578	893.1513660059699	1856.017715641424	1007.88058376868	955.4374664863428	1663.364586272417	204.6700722923896	903.3450895635768	1635.998591125217	232.5082835218043	942.7845308045501	1698.873488904246	273.1474783469287	880.4544981991727	1672.06003002707	301.037001015549	918.2567122685005	1886.588283435138	600.5356033271415	830.1128812710061	1825.371669082498	616.7008302864991	863.2299969679513	1899.885463768887	707.6622922855795	807.7229320430152	1841.54713462628	723.3580038326659	840.5063181046794	2027.656256437576	955.6631680750525	1110.649718792019	1991.95742485346	206.3894077756543	1069.748359183215	1838.994754023358	298.5377470567777	1016.202732607459	1860.994125541828	294.0120060282746	1067.257330779773	1876.074899628239	323.2117199730958	1023.726868101231	1956.76501548423	1022.737350760569	1160.510546283158	1995.497274611979	153.7522646580505	1022.307465741589	1951.253197059159	171.57447819318	1123.54817026758	1851.676450349673	1005.508025511262	1036.751023506725	1970.612067001464	362.0112122467614	1094.819611516599	1956.474768905261	385.1112003708089	1051.063603024296	2023.816293105151	426.3829497464714	1109.505106573041	2003.600324300888	448.7142860456188	1065.617179791299	2141.175854970018	679.9685096005186	1148.496161039756	2094.591906255581	634.2668786371423	1115.328061104309	2057.427874703033	748.7554100182602	1166.500111003323	2013.269751458876	704.2691525667084	1135.733109336042	
